<?xml version="1.0" encoding="UTF-8"?>
<svg version="1.1" xmlns="http://www.w3.org/2000/svg" width="512" height="512">
<path d="M0 0 C1.58969176 -0.00679667 1.58969176 -0.00679667 3.2114985 -0.01373065 C6.7626457 -0.02639067 10.31363985 -0.02475321 13.86480713 -0.02310181 C16.41101275 -0.02908607 18.95721656 -0.03589138 21.50341797 -0.04345703 C27.70230683 -0.05929884 33.90113964 -0.06556591 40.10004684 -0.06668179 C45.14082296 -0.06763306 50.18158655 -0.07174729 55.2223587 -0.07808304 C69.52401692 -0.09569206 83.82564516 -0.10492254 98.1273143 -0.10342209 C98.8979135 -0.10334218 99.66851269 -0.10326227 100.46246338 -0.10317993 C101.61977897 -0.10305729 101.61977897 -0.10305729 102.80047467 -0.10293217 C115.29965156 -0.10211956 127.79870785 -0.12125169 140.29784986 -0.14945666 C153.14181764 -0.17821027 165.98572665 -0.19199557 178.82972741 -0.19026911 C186.03664001 -0.18960602 193.24342621 -0.19506259 200.45030975 -0.21662521 C207.23012286 -0.23678051 214.0096252 -0.23613805 220.78946686 -0.22159195 C223.27506398 -0.21950159 225.76067776 -0.22421817 228.24624634 -0.23631287 C231.64527102 -0.25177851 235.0433775 -0.2424473 238.44238281 -0.22705078 C239.91002095 -0.24248147 239.91002095 -0.24248147 241.40730834 -0.25822389 C250.25498616 -0.16995192 258.31538838 2.29604482 264.87750244 8.43930054 C272.16059201 16.77300694 274.86516987 25.3471125 274.47515869 36.26742554 C275.15320557 36.22101929 275.83125244 36.17461304 276.52984619 36.12680054 C286.04413204 35.75782546 292.87646982 37.84097545 300.28765869 43.89242554 C306.17095246 49.45291911 310.28674238 56.87118252 310.57281494 65.06430054 C310.5554126 66.52609741 310.5554126 66.52609741 310.53765869 68.01742554 C310.52863525 69.00226929 310.51961182 69.98711304 310.51031494 71.00180054 C310.4929126 72.12328491 310.4929126 72.12328491 310.47515869 73.26742554 C311.58890869 73.20555054 312.70265869 73.14367554 313.85015869 73.07992554 C323.31251729 73.14667939 330.79258476 76.63596115 337.47515869 83.26742554 C342.66061301 89.65208556 345.71478658 95.84992198 345.74258423 104.2010498 C345.75537918 105.94648071 345.75537918 105.94648071 345.76843262 107.72717285 C345.76752625 108.98971893 345.76661987 110.25226501 345.76568604 111.55307007 C345.77167558 112.90705738 345.7784821 114.26104129 345.78604126 115.61502075 C345.80365758 119.28012479 345.80839457 122.94513537 345.80967283 126.61027765 C345.81109659 128.90087888 345.81537026 131.1914565 345.82066727 133.48205185 C345.83914763 141.47481542 345.8473397 149.4675124 345.84576416 157.46029663 C345.8445608 164.90970314 345.86570612 172.35882085 345.89725149 179.80815423 C345.92338795 186.2082986 345.93413269 192.60834841 345.93285334 199.00854576 C345.93234326 202.8294205 345.93805255 206.65003798 345.95920944 210.47085953 C345.97854978 214.06118711 345.97874579 217.6510107 345.96417618 221.2413559 C345.96108341 223.18717382 345.97779077 225.13299157 345.99505615 227.07873535 C345.98666718 228.23671631 345.9782782 229.39469727 345.96963501 230.58776855 C345.97072454 231.59394793 345.97181408 232.6001273 345.97293663 233.63679695 C345.33621563 237.00170394 344.16953996 238.21218824 341.47515869 240.26742554 C340.48515869 240.26742554 339.49515869 240.26742554 338.47515869 240.26742554 C338.47515869 246.53742554 338.47515869 252.80742554 338.47515869 259.26742554 C340.12515869 259.92742554 341.77515869 260.58742554 343.47515869 261.26742554 C346.099985 263.89225185 345.72234879 265.76781369 345.7519697 269.3417449 C345.74732389 270.63013321 345.74732389 270.63013321 345.74258423 271.94454956 C345.74711534 272.85391848 345.75164645 273.7632874 345.75631487 274.70021296 C345.7690375 277.7662877 345.76733342 280.83218659 345.76568604 283.89828491 C345.77166664 286.08922557 345.7784711 288.28016411 345.78604126 290.47109985 C345.80376247 296.4384159 345.80839939 302.40567464 345.80967283 308.37301445 C345.81156895 313.35277621 345.81892371 318.33252453 345.82601702 323.31228113 C345.84139165 334.39351341 345.84735287 345.47472306 345.84600632 356.55596465 C345.84592641 357.22129362 345.84584649 357.88662259 345.84576416 358.57211304 C345.8456824 359.23825664 345.84560064 359.90440024 345.8455164 360.59073001 C345.8447047 371.37007355 345.86380972 382.14927695 345.89204089 392.92857999 C345.92080907 404.00056436 345.93421309 415.07247714 345.93285334 426.1444993 C345.93234369 432.35885282 345.93802801 438.57304805 345.95920944 444.78736877 C345.97860456 450.63801587 345.97870727 456.48835401 345.96417618 462.33901215 C345.96208814 464.48274437 345.96678863 466.62649597 345.97889709 468.77019501 C345.99439706 471.70530102 345.98500958 474.63934818 345.96963501 477.57443237 C345.97992214 478.41551214 345.99020926 479.2565919 346.00080812 480.12315893 C345.88229695 490.41774678 341.71223928 498.17837614 334.47515869 505.26742554 C327.47440464 511.90916656 319.91452992 512.71146781 310.70980835 512.65510559 C309.648305 512.66049113 308.58680164 512.66587667 307.49313152 512.6714254 C303.94812176 512.6856945 300.40348594 512.67860362 296.85845947 512.67147827 C294.31195781 512.67718238 291.7654587 512.6841468 289.21896362 512.692276 C283.02700484 512.70835593 276.83518339 512.7103088 270.64321007 512.7050631 C265.60819766 512.70101562 260.57321518 512.70247181 255.53820419 512.70781136 C254.82058142 512.70855978 254.10295865 512.7093082 253.36358973 512.7100793 C251.9055593 512.71161084 250.44752889 512.71314919 248.98949848 512.71469427 C235.3271098 512.72841109 221.66477844 512.72298752 208.00239109 512.71150906 C195.51626919 512.70157889 183.03029553 512.714515 170.5441965 512.73844325 C157.70919869 512.76285392 144.87426986 512.77243721 132.0392493 512.76579052 C124.83908138 512.76230249 117.63902742 512.76450273 110.43887711 512.78204155 C103.66723265 512.79833258 96.89591596 512.79355134 90.12426376 512.7747364 C87.64189457 512.77105136 85.15950441 512.77415645 82.67715454 512.78462219 C79.28260337 512.79783892 75.88898767 512.7862772 72.49447632 512.76863098 C71.51741513 512.77823599 70.54035395 512.78784099 69.53368485 512.79773706 C60.69129583 512.70347664 52.63093915 510.23507107 46.07281494 504.09555054 C38.51221493 495.44430162 36.00418373 486.57082462 36.47515869 475.26742554 C35.19640869 475.34992554 33.91765869 475.43242554 32.60015869 475.51742554 C24.60808575 475.49233269 17.47284195 472.03885244 11.29547119 467.09945679 C4.87965947 460.64234156 1.40651723 452.37547138 1.35015869 443.32992554 C1.381815 441.97548789 1.41990643 440.62110595 1.47515869 439.26742554 C-0.44296631 439.36023804 -0.44296631 439.36023804 -2.39984131 439.45492554 C-12.10683995 439.39406661 -19.63798036 436.10161451 -26.52484131 429.26742554 C-31.99801531 422.5285068 -34.771575 416.26087671 -34.78211021 407.48191452 C-34.78561629 406.82121006 -34.78912236 406.16050559 -34.79273468 405.47977978 C-34.80203075 403.26818379 -34.79713009 401.05685217 -34.79226685 398.84524536 C-34.79600402 397.24264444 -34.80060581 395.64004533 -34.80599749 394.03744912 C-34.81823472 389.63507823 -34.81796617 385.23278329 -34.81560874 380.83039927 C-34.81520075 376.08179092 -34.826238 371.33320698 -34.83572388 366.58460999 C-34.85233899 357.28154241 -34.85783366 347.97850017 -34.85894863 338.675419 C-34.8598989 331.11319121 -34.86400811 323.55097179 -34.87034988 315.98874664 C-34.88796395 294.54854937 -34.89718854 273.10837212 -34.89568894 251.66816756 C-34.89560902 250.51224594 -34.89552911 249.35632431 -34.89544678 248.16537476 C-34.89536502 247.00804172 -34.89528325 245.85070869 -34.89519902 244.65830496 C-34.89438614 225.90278104 -34.91352368 207.14733743 -34.94172351 188.39183673 C-34.97045026 169.13392143 -34.98426391 149.87604531 -34.98253596 130.61810803 C-34.98187197 119.80622037 -34.98736818 108.99441689 -35.00889206 98.18254852 C-35.02710111 88.97676542 -35.03145345 79.77110466 -35.01787321 70.56531134 C-35.0113421 65.86937722 -35.01123155 61.17367784 -35.02857971 56.47776604 C-35.04430917 52.17572198 -35.04144814 47.87409881 -35.02401145 43.57206503 C-35.02094127 42.018912 -35.02457466 40.46572756 -35.0357316 38.91261157 C-35.11500649 27.09048939 -33.72474545 17.8430453 -25.38421631 9.02133179 C-17.58199879 1.66167703 -10.58866478 -0.03321549 0 0 Z " fill="#00D3FE" transform="translate(100.52484130859375,-0.267425537109375)"/>
<path d="M0 0 C1.58969176 -0.00679667 1.58969176 -0.00679667 3.2114985 -0.01373065 C6.7626457 -0.02639067 10.31363985 -0.02475321 13.86480713 -0.02310181 C16.41101275 -0.02908607 18.95721656 -0.03589138 21.50341797 -0.04345703 C27.70230683 -0.05929884 33.90113964 -0.06556591 40.10004684 -0.06668179 C45.14082296 -0.06763306 50.18158655 -0.07174729 55.2223587 -0.07808304 C69.52401692 -0.09569206 83.82564516 -0.10492254 98.1273143 -0.10342209 C98.8979135 -0.10334218 99.66851269 -0.10326227 100.46246338 -0.10317993 C101.61977897 -0.10305729 101.61977897 -0.10305729 102.80047467 -0.10293217 C115.29965156 -0.10211956 127.79870785 -0.12125169 140.29784986 -0.14945666 C153.14181764 -0.17821027 165.98572665 -0.19199557 178.82972741 -0.19026911 C186.03664001 -0.18960602 193.24342621 -0.19506259 200.45030975 -0.21662521 C207.23012286 -0.23678051 214.0096252 -0.23613805 220.78946686 -0.22159195 C223.27506398 -0.21950159 225.76067776 -0.22421817 228.24624634 -0.23631287 C231.64527102 -0.25177851 235.0433775 -0.2424473 238.44238281 -0.22705078 C239.91002095 -0.24248147 239.91002095 -0.24248147 241.40730834 -0.25822389 C250.25498616 -0.16995192 258.31538838 2.29604482 264.87750244 8.43930054 C272.16059201 16.77300694 274.86516987 25.3471125 274.47515869 36.26742554 C275.15320557 36.22101929 275.83125244 36.17461304 276.52984619 36.12680054 C286.04413204 35.75782546 292.87646982 37.84097545 300.28765869 43.89242554 C306.17095246 49.45291911 310.28674238 56.87118252 310.57281494 65.06430054 C310.5554126 66.52609741 310.5554126 66.52609741 310.53765869 68.01742554 C310.52863525 69.00226929 310.51961182 69.98711304 310.51031494 71.00180054 C310.4929126 72.12328491 310.4929126 72.12328491 310.47515869 73.26742554 C311.58890869 73.20555054 312.70265869 73.14367554 313.85015869 73.07992554 C323.31251729 73.14667939 330.79258476 76.63596115 337.47515869 83.26742554 C342.66061301 89.65208556 345.71478658 95.84992198 345.74258423 104.2010498 C345.75537918 105.94648071 345.75537918 105.94648071 345.76843262 107.72717285 C345.76752625 108.98971893 345.76661987 110.25226501 345.76568604 111.55307007 C345.77167558 112.90705738 345.7784821 114.26104129 345.78604126 115.61502075 C345.80365758 119.28012479 345.80839457 122.94513537 345.80967283 126.61027765 C345.81109659 128.90087888 345.81537026 131.1914565 345.82066727 133.48205185 C345.83914763 141.47481542 345.8473397 149.4675124 345.84576416 157.46029663 C345.8445608 164.90970314 345.86570612 172.35882085 345.89725149 179.80815423 C345.92338795 186.2082986 345.93413269 192.60834841 345.93285334 199.00854576 C345.93234326 202.8294205 345.93805255 206.65003798 345.95920944 210.47085953 C345.97854978 214.06118711 345.97874579 217.6510107 345.96417618 221.2413559 C345.96108341 223.18717382 345.97779077 225.13299157 345.99505615 227.07873535 C345.98666718 228.23671631 345.9782782 229.39469727 345.96963501 230.58776855 C345.97072454 231.59394793 345.97181408 232.6001273 345.97293663 233.63679695 C345.33621563 237.00170394 344.16953996 238.21218824 341.47515869 240.26742554 C340.48515869 240.26742554 339.49515869 240.26742554 338.47515869 240.26742554 C338.47515869 246.53742554 338.47515869 252.80742554 338.47515869 259.26742554 C340.12515869 259.92742554 341.77515869 260.58742554 343.47515869 261.26742554 C346.099985 263.89225185 345.72234879 265.76781369 345.7519697 269.3417449 C345.74732389 270.63013321 345.74732389 270.63013321 345.74258423 271.94454956 C345.74711534 272.85391848 345.75164645 273.7632874 345.75631487 274.70021296 C345.7690375 277.7662877 345.76733342 280.83218659 345.76568604 283.89828491 C345.77166664 286.08922557 345.7784711 288.28016411 345.78604126 290.47109985 C345.80376247 296.4384159 345.80839939 302.40567464 345.80967283 308.37301445 C345.81156895 313.35277621 345.81892371 318.33252453 345.82601702 323.31228113 C345.84139165 334.39351341 345.84735287 345.47472306 345.84600632 356.55596465 C345.84592641 357.22129362 345.84584649 357.88662259 345.84576416 358.57211304 C345.8456824 359.23825664 345.84560064 359.90440024 345.8455164 360.59073001 C345.8447047 371.37007355 345.86380972 382.14927695 345.89204089 392.92857999 C345.92080907 404.00056436 345.93421309 415.07247714 345.93285334 426.1444993 C345.93234369 432.35885282 345.93802801 438.57304805 345.95920944 444.78736877 C345.97860456 450.63801587 345.97870727 456.48835401 345.96417618 462.33901215 C345.96208814 464.48274437 345.96678863 466.62649597 345.97889709 468.77019501 C345.99439706 471.70530102 345.98500958 474.63934818 345.96963501 477.57443237 C345.97992214 478.41551214 345.99020926 479.2565919 346.00080812 480.12315893 C345.88229695 490.41774678 341.71223928 498.17837614 334.47515869 505.26742554 C327.47440464 511.90916656 319.91452992 512.71146781 310.70980835 512.65510559 C309.648305 512.66049113 308.58680164 512.66587667 307.49313152 512.6714254 C303.94812176 512.6856945 300.40348594 512.67860362 296.85845947 512.67147827 C294.31195781 512.67718238 291.7654587 512.6841468 289.21896362 512.692276 C283.02700484 512.70835593 276.83518339 512.7103088 270.64321007 512.7050631 C265.60819766 512.70101562 260.57321518 512.70247181 255.53820419 512.70781136 C254.82058142 512.70855978 254.10295865 512.7093082 253.36358973 512.7100793 C251.9055593 512.71161084 250.44752889 512.71314919 248.98949848 512.71469427 C235.3271098 512.72841109 221.66477844 512.72298752 208.00239109 512.71150906 C195.51626919 512.70157889 183.03029553 512.714515 170.5441965 512.73844325 C157.70919869 512.76285392 144.87426986 512.77243721 132.0392493 512.76579052 C124.83908138 512.76230249 117.63902742 512.76450273 110.43887711 512.78204155 C103.66723265 512.79833258 96.89591596 512.79355134 90.12426376 512.7747364 C87.64189457 512.77105136 85.15950441 512.77415645 82.67715454 512.78462219 C79.28260337 512.79783892 75.88898767 512.7862772 72.49447632 512.76863098 C71.51741513 512.77823599 70.54035395 512.78784099 69.53368485 512.79773706 C60.69129583 512.70347664 52.63093915 510.23507107 46.07281494 504.09555054 C38.51221493 495.44430162 36.00418373 486.57082462 36.47515869 475.26742554 C35.19640869 475.34992554 33.91765869 475.43242554 32.60015869 475.51742554 C24.60808575 475.49233269 17.47284195 472.03885244 11.29547119 467.09945679 C4.87965947 460.64234156 1.40651723 452.37547138 1.35015869 443.32992554 C1.381815 441.97548789 1.41990643 440.62110595 1.47515869 439.26742554 C-0.44296631 439.36023804 -0.44296631 439.36023804 -2.39984131 439.45492554 C-12.10683995 439.39406661 -19.63798036 436.10161451 -26.52484131 429.26742554 C-31.99801531 422.5285068 -34.771575 416.26087671 -34.78211021 407.48191452 C-34.78561629 406.82121006 -34.78912236 406.16050559 -34.79273468 405.47977978 C-34.80203075 403.26818379 -34.79713009 401.05685217 -34.79226685 398.84524536 C-34.79600402 397.24264444 -34.80060581 395.64004533 -34.80599749 394.03744912 C-34.81823472 389.63507823 -34.81796617 385.23278329 -34.81560874 380.83039927 C-34.81520075 376.08179092 -34.826238 371.33320698 -34.83572388 366.58460999 C-34.85233899 357.28154241 -34.85783366 347.97850017 -34.85894863 338.675419 C-34.8598989 331.11319121 -34.86400811 323.55097179 -34.87034988 315.98874664 C-34.88796395 294.54854937 -34.89718854 273.10837212 -34.89568894 251.66816756 C-34.89560902 250.51224594 -34.89552911 249.35632431 -34.89544678 248.16537476 C-34.89536502 247.00804172 -34.89528325 245.85070869 -34.89519902 244.65830496 C-34.89438614 225.90278104 -34.91352368 207.14733743 -34.94172351 188.39183673 C-34.97045026 169.13392143 -34.98426391 149.87604531 -34.98253596 130.61810803 C-34.98187197 119.80622037 -34.98736818 108.99441689 -35.00889206 98.18254852 C-35.02710111 88.97676542 -35.03145345 79.77110466 -35.01787321 70.56531134 C-35.0113421 65.86937722 -35.01123155 61.17367784 -35.02857971 56.47776604 C-35.04430917 52.17572198 -35.04144814 47.87409881 -35.02401145 43.57206503 C-35.02094127 42.018912 -35.02457466 40.46572756 -35.0357316 38.91261157 C-35.11500649 27.09048939 -33.72474545 17.8430453 -25.38421631 9.02133179 C-17.58199879 1.66167703 -10.58866478 -0.03321549 0 0 Z M-18.52484131 25.26742554 C-19.4726585 28.1108771 -19.64927525 29.84529085 -19.64788914 32.7907896 C-19.64988019 33.72334597 -19.65187123 34.65590234 -19.65392262 35.61671799 C-19.65100978 36.64297172 -19.64809693 37.66922544 -19.64509583 38.72657776 C-19.64595025 39.81536596 -19.64680467 40.90415416 -19.64768499 42.02593595 C-19.6493387 45.69263059 -19.64382015 49.35927999 -19.6383667 53.02597046 C-19.63808478 55.64706928 -19.63824266 58.26816819 -19.6388092 60.88926697 C-19.63933402 66.54175985 -19.63619164 72.1942412 -19.63057137 77.84673119 C-19.62245064 86.01932176 -19.61984056 94.19190675 -19.61858337 102.36450092 C-19.61639376 115.62340538 -19.60973611 128.88230371 -19.60028076 142.14120483 C-19.59110431 155.02238942 -19.58402462 167.90357233 -19.57977295 180.78475952 C-19.57951023 181.57851217 -19.5792475 182.37226483 -19.57897682 183.19007059 C-19.5776718 187.17202163 -19.57640809 191.15397268 -19.57516491 195.13592374 C-19.56479511 228.17976215 -19.54717925 261.22359302 -19.52484131 294.26742554 C-18.88431194 294.27165748 -18.24378258 294.27588942 -17.58384323 294.2802496 C-2.00190684 294.38353204 13.57998165 294.49216621 29.16183853 294.60676479 C36.69708971 294.66205447 44.23234563 294.71552947 51.76763916 294.76473999 C58.33501696 294.80763397 64.90236051 294.85392509 71.46968532 294.90430409 C74.94736188 294.93086303 78.42503184 294.95571501 81.90274811 294.97649956 C85.7840274 294.99975962 89.66522615 295.03060372 93.54644775 295.06210327 C95.27813957 295.07073647 95.27813957 295.07073647 97.04481506 295.07954407 C98.10208298 295.08933289 99.15935089 295.0991217 100.24865723 295.10920715 C101.16676304 295.1156597 102.08486885 295.12211226 103.03079605 295.12876034 C105.31494992 295.25833712 107.2854661 295.62607898 109.47515869 296.26742554 C110.64703369 302.12680054 110.64703369 302.12680054 110.47515869 304.26742554 C108.45104905 306.79661332 107.22986652 308.11163273 104.01517868 308.77523422 C103.08969852 308.77892139 102.16421837 308.78260857 101.21069336 308.78640747 C99.61217026 308.80727669 99.61217026 308.80727669 97.98135376 308.8285675 C96.81754181 308.82353714 95.65372986 308.81850677 94.45465088 308.81332397 C93.22511688 308.82366165 91.99558289 308.83399933 90.72879028 308.84465027 C87.36110066 308.86908766 83.99423763 308.87591492 80.6265173 308.87493038 C77.10570485 308.87805916 73.58505788 308.90367656 70.06433105 308.9269104 C63.39918142 308.96747683 56.73412963 308.98781254 50.06887555 309.00088429 C42.47996395 309.01675223 34.89121893 309.0551669 27.30240393 309.09547758 C11.69337169 309.17788524 -3.91562754 309.23197184 -19.52484131 309.26742554 C-19.59439313 322.18487656 -19.64767906 335.10228292 -19.68027782 348.01988316 C-19.69592465 354.01823612 -19.71714528 360.01646083 -19.75115967 366.01473999 C-19.78378771 371.80486751 -19.80170172 377.59487178 -19.80947304 383.38508415 C-19.81501032 385.59265012 -19.82582327 387.80020945 -19.84203148 390.00772285 C-19.86385118 393.10298292 -19.86680628 396.19773553 -19.86541748 399.2930603 C-19.87620331 400.20296722 -19.88698914 401.11287415 -19.89810181 402.050354 C-19.86453467 408.9773574 -18.75789091 413.75524474 -14.02484131 419.07992554 C-10.149258 422.47106093 -8.10264735 423.51859659 -3.01927185 423.58868408 C-1.87422684 423.60877533 -0.72918182 423.62886658 0.45056152 423.64956665 C1.70818298 423.66122864 2.96580444 423.67289062 4.26153564 423.68490601 C5.59886145 423.70398793 6.93617741 423.72377048 8.27348328 423.74420166 C12.67001643 423.80696812 17.06662485 423.8475296 21.46343994 423.88461304 C22.58784536 423.894505 22.58784536 423.894505 23.73496604 423.90459681 C30.81493443 423.96620032 37.89492046 424.01958054 44.97507954 424.05343437 C54.00695477 424.09713467 63.03643462 424.18080032 72.06735259 424.32030952 C78.42934792 424.41521523 84.79070248 424.46335814 91.15338296 424.47782815 C94.94661255 424.48768636 98.73714378 424.51728271 102.52959633 424.59731674 C121.69628534 425.67043252 121.69628534 425.67043252 138.16827393 417.44564819 C140.07570711 415.46102094 141.75095182 413.42476836 143.47515869 411.26742554 C144.90773699 409.88128725 146.35584894 408.51051934 147.83453369 407.17367554 C148.96988061 406.04339714 150.10040564 404.90824649 151.22515869 403.76742554 C151.81297119 403.18734741 152.40078369 402.60726929 153.00640869 402.00961304 C155.80518153 399.19800179 157.74098164 396.85735508 159.47515869 393.26742554 C158.77186275 393.2631936 158.0685668 393.25896166 157.34395885 393.25460148 C140.24355056 393.15136704 123.14318509 393.04274013 106.04284954 392.92808628 C97.77331141 392.87277142 89.50376897 392.81929226 81.23419189 392.77011108 C74.02774751 392.72724799 66.82133467 392.6809646 59.61493903 392.63054699 C55.79803289 392.60396319 51.98113293 392.57911053 48.16419029 392.55835152 C44.57324885 392.53876766 40.98236735 392.51461863 37.39147949 392.48693466 C35.44187949 392.47310236 33.49224685 392.46414061 31.5426178 392.45530701 C30.3857547 392.44551819 29.2288916 392.43572937 28.03697205 392.42564392 C27.02945231 392.41919137 26.02193258 392.41273882 24.98388195 392.40609074 C22.47515869 392.26742554 22.47515869 392.26742554 19.47515869 391.26742554 C18.42762348 386.02974948 18.42762348 386.02974948 18.47515869 383.26742554 C20.31936172 380.78729043 21.73798196 379.6360139 24.47515869 378.26742554 C26.41090662 378.18296663 28.34966206 378.16477835 30.28721619 378.17649841 C31.5251442 378.18116119 32.7630722 378.18582397 34.03851318 378.19062805 C35.41802986 378.20067309 36.79754646 378.210729 38.17706299 378.22079468 C39.62410738 378.22758248 41.07115456 378.2337943 42.51820374 378.23947144 C44.83300981 378.24871986 47.14780632 378.25846699 49.46260202 378.27004921 C55.20679134 378.29878839 60.95082541 378.31039704 66.69508362 378.31147766 C67.52814252 378.31165943 68.36120142 378.31184119 69.21950454 378.31202847 C72.65740899 378.31247845 76.09531331 378.31239602 79.53321779 378.31219304 C89.29726599 378.31245774 99.06067315 378.32917355 108.82452393 378.39413452 C116.57691251 378.44559782 124.32847096 378.46176443 132.08100253 378.4366731 C136.18373115 378.42473345 140.28468857 378.43063559 144.38718224 378.47935677 C148.24989799 378.52484134 152.10979728 378.52344232 155.97257805 378.48661041 C157.38712072 378.48135392 158.80184825 378.4930865 160.2160759 378.52339745 C168.18101279 378.81918761 168.18101279 378.81918761 174.83593178 375.08561516 C176.63767515 372.54955647 178.08874416 370.04808397 179.47515869 367.26742554 C180.20451633 366.07312782 180.94149704 364.88341062 181.69000244 363.70101929 C182.258479 362.71230835 182.82695557 361.72359741 183.41265869 360.70492554 C183.99918213 359.69301147 184.58570557 358.68109741 185.19000244 357.63851929 C186.5545781 355.57039495 186.5545781 355.57039495 186.47515869 354.26742554 C184.50724365 354.25340698 184.50724365 354.25340698 182.49957275 354.23910522 C177.63138898 354.19922893 172.76383874 354.1334764 167.89605713 354.05990601 C165.78936909 354.03168274 163.68257489 354.01047498 161.57574463 353.99642944 C158.54687089 353.97501893 155.51927538 353.92837794 152.49078369 353.87680054 C151.54898254 353.8755719 150.6071814 353.87434326 149.63684082 353.87307739 C143.13263362 353.72743528 143.13263362 353.72743528 139.88043213 351.45199585 C137.81275816 348.23768961 137.93277031 345.99634564 138.47515869 342.26742554 C141.41770483 339.35372325 143.63604372 338.88440509 147.70269775 338.83505249 C148.74347473 338.81525833 149.78425171 338.79546417 150.85656738 338.77507019 C152.53175446 338.76548531 152.53175446 338.76548531 154.24078369 338.75570679 C155.96358551 338.72877998 155.96358551 338.72877998 157.72119141 338.7013092 C161.38914317 338.64713213 165.05696424 338.61328585 168.72515869 338.57992554 C171.21215607 338.5467591 173.69913619 338.51227008 176.18609619 338.47640991 C182.28233317 338.39140128 188.37858692 338.32308258 194.47515869 338.26742554 C195.38233458 336.4187819 196.27498143 334.5630107 197.16265869 332.70492554 C197.66152588 331.67238647 198.16039307 330.63984741 198.67437744 329.57601929 C201.45130242 323.34723369 203.37784541 316.7479821 205.47515869 310.26742554 C204.63435257 310.2615593 203.79354645 310.25569305 202.92726135 310.24964905 C194.99663028 310.19170308 187.06628026 310.11961548 179.13592243 310.03171062 C175.05899857 309.98701655 170.98217442 309.94775847 166.90509033 309.92098999 C162.9691601 309.89494714 159.03361374 309.85453824 155.09792137 309.80423927 C153.59770679 309.7875771 152.09742583 309.77605875 150.59713173 309.76981163 C148.49267123 309.76016305 146.38919131 309.73209727 144.28497314 309.69979858 C143.08806351 309.68869553 141.89115387 309.67759247 140.65797424 309.66615295 C137.14589699 309.22617726 135.23800266 308.46273517 132.47515869 306.26742554 C131.50182042 302.37407246 131.20133651 300.08889208 132.47515869 296.26742554 C135.441301 295.27871143 137.40942489 295.13129927 140.50547791 295.10920715 C141.54454285 295.09941833 142.58360779 295.08962952 143.65415955 295.07954407 C144.79351456 295.0737886 145.93286957 295.06803314 147.10675049 295.06210327 C148.30687775 295.05220367 149.507005 295.04230408 150.74349976 295.03210449 C154.03453416 295.00591171 157.32554425 294.98405175 160.61661887 294.96410251 C164.05596766 294.94223514 167.49527236 294.91485012 170.93458557 294.88804626 C177.44745793 294.83812953 183.96035477 294.79318692 190.47327501 294.7500239 C197.88798467 294.70064282 205.3026501 294.64572792 212.71731699 294.59034431 C227.96989001 294.47653991 243.22250372 294.36969751 258.47515869 294.26742554 C258.58962365 260.3894118 258.67771747 226.5114462 258.73048534 192.63328201 C258.73673881 188.63291156 258.74321043 184.6325415 258.74981689 180.63217163 C258.75112845 179.83577597 258.75244 179.03938031 258.75379129 178.21885145 C258.77554297 165.32670971 258.81496316 152.43467954 258.86092267 139.54260397 C258.90769398 126.31238712 258.9354555 113.08222866 258.94560117 99.85193253 C258.95245895 91.68924239 258.97411189 83.52686762 259.01474103 75.36427456 C259.04431595 69.1032806 259.04743111 62.84252666 259.0406971 56.5814724 C259.04207321 54.01439663 259.05202646 51.44730897 259.07118607 48.88030434 C259.09606649 45.37503512 259.09008042 41.8711147 259.07643127 38.36581421 C259.09099548 37.35023375 259.10555969 36.33465328 259.12056524 35.28829765 C259.0524636 28.81695241 258.0493695 24.05105276 253.47515869 19.26742554 C247.83212105 14.85679812 241.86507817 14.69500437 234.94863892 14.75949097 C233.39502779 14.75013102 233.39502779 14.75013102 231.81003058 14.74058199 C228.35230662 14.72467441 224.89528977 14.73724796 221.43756104 14.74984741 C218.95353281 14.7444254 216.46950781 14.7373023 213.98548889 14.72860718 C207.94721975 14.71227366 201.90922638 14.71464662 195.87096809 14.72625774 C190.96320352 14.73530325 186.05549467 14.73651125 181.14772415 14.73216248 C180.44837401 14.73154954 179.74902388 14.73093661 179.02848131 14.73030511 C177.60764696 14.72902617 176.18681262 14.72772932 174.76597829 14.72641474 C161.45515769 14.71501911 148.14444744 14.72810752 134.83364494 14.74961621 C123.41624277 14.76749415 111.99900325 14.76437544 100.581604 14.74594116 C87.31426365 14.72452996 74.04701985 14.71610939 60.77966464 14.72839022 C59.36476367 14.72966439 57.94986269 14.73092187 56.5349617 14.73216248 C55.83884598 14.73277958 55.14273025 14.73339668 54.42552011 14.73403248 C49.52351827 14.73748406 44.62157776 14.73166137 39.71958542 14.72224426 C33.12197356 14.70984792 26.5246215 14.71868641 19.92702293 14.74182129 C17.50425541 14.74711536 15.08146204 14.74558275 12.65870476 14.73677063 C9.35468938 14.72586 6.05166332 14.73952571 2.74771118 14.75949097 C1.78623527 14.75056808 0.82475936 14.74164519 -0.16585219 14.73245192 C-9.04539302 14.83671981 -13.30386827 18.2564046 -18.52484131 25.26742554 Z " fill="#020201" transform="translate(100.52484130859375,-0.267425537109375)"/>
<path d="M0 0 C3.10367497 -0.14515677 6.20648027 -0.23400853 9.3125 -0.3125 C10.19357422 -0.35439453 11.07464844 -0.39628906 11.98242188 -0.43945312 C14.41613743 -0.48572148 16.6123848 -0.48007106 19 0 C20.85546875 2.39453125 20.85546875 2.39453125 22 5 C25.41854575 7.36362214 28.6266877 7.27362986 32.69628906 7.31884766 C33.36011597 7.32889328 34.02394287 7.3389389 34.70788574 7.34928894 C36.89379033 7.38008633 39.07957263 7.3971461 41.265625 7.4140625 C42.78449554 7.43277696 44.30335572 7.45235059 45.82220459 7.4727478 C49.81369919 7.52404579 53.80522749 7.56368388 57.796875 7.60089111 C61.87248047 7.64094546 65.94794604 7.69203126 70.0234375 7.7421875 C78.01552938 7.83891914 86.00769058 7.92333264 94 8 C88.8708713 23.84866173 88.8708713 23.84866173 85.6875 30.4375 C85.17574219 31.50871094 84.66398438 32.57992187 84.13671875 33.68359375 C83.76160156 34.44800781 83.38648438 35.21242188 83 36 C82.35742249 36.00586624 81.71484497 36.01173248 81.05279541 36.01777649 C74.36921548 36.08167396 67.6861187 36.16608441 61.00292969 36.26245117 C58.50820279 36.29572069 56.01340025 36.32374623 53.51855469 36.34643555 C49.93391665 36.3799435 46.34997308 36.43225911 42.765625 36.48828125 C41.09043793 36.49786613 41.09043793 36.49786613 39.38140869 36.50764465 C38.34063171 36.52743881 37.29985474 36.54723297 36.22753906 36.56762695 C35.31264709 36.57873001 34.39775513 36.58983307 33.45513916 36.60127258 C30.50357151 37.08062258 29.11674501 37.90400404 27 40 C26.45761162 43.7289201 26.33759947 45.97026408 28.40527344 49.18457031 C32.4010273 51.98024454 36.24676245 51.60315372 41.015625 51.609375 C41.98659119 51.62591125 42.95755737 51.64244751 43.95794678 51.65948486 C47.05536183 51.70802119 50.15228573 51.72934857 53.25 51.75 C55.35158729 51.77815493 57.45315164 51.80808168 59.5546875 51.83984375 C64.70308458 51.9137819 69.85120808 51.96332229 75 52 C72.21669045 57.76738005 69.36387626 63.27272311 65.75 68.5625 C65.06421875 69.57441406 64.3784375 70.58632813 63.671875 71.62890625 C62 74 62 74 61 75 C59.10043959 75.10224731 57.19704372 75.13354528 55.29473877 75.13803101 C54.0552951 75.14348434 52.81585144 75.14893768 51.53884888 75.15455627 C50.15252691 75.15567619 48.76620488 75.15672669 47.37988281 75.15771484 C45.92973679 75.16238064 44.47959223 75.16752382 43.02944946 75.17311096 C39.89900092 75.18441191 36.76856202 75.19283649 33.63809967 75.19923019 C28.68828257 75.20988921 23.73853435 75.23012908 18.78875732 75.25234985 C4.71076618 75.31434251 -9.36722162 75.36827764 -23.4453125 75.40136719 C-31.21472478 75.41970916 -38.98402245 75.4486417 -46.7533505 75.4893719 C-50.86656902 75.51045302 -54.979643 75.52590067 -59.0929184 75.52817917 C-62.96385679 75.5303258 -66.83449451 75.54619644 -70.70534134 75.57256889 C-72.12550066 75.57976344 -73.54569641 75.58186209 -74.9658699 75.57846642 C-76.9062024 75.57456847 -78.8465441 75.59079304 -80.7868042 75.60800171 C-81.87229931 75.61131186 -82.95779442 75.614622 -84.07618332 75.61803246 C-87.43236881 76.05648468 -89.32250389 76.94945822 -92 79 C-93.04269797 82.50048604 -93.51390041 85.59372407 -92 89 C-88.88712483 90.03762506 -86.70399282 90.13730288 -83.43818665 90.15821838 C-82.28132355 90.1680072 -81.12446045 90.17779602 -79.93254089 90.18788147 C-78.66227554 90.19363693 -77.39201019 90.1993924 -76.08325195 90.20532227 C-74.73306987 90.21490173 -73.38289078 90.22491186 -72.03271484 90.23532104 C-68.36567322 90.26236875 -64.69861874 90.28337904 -61.03153253 90.30332303 C-57.19980538 90.3251834 -53.36811789 90.35257184 -49.53642273 90.37937927 C-42.27981263 90.42930546 -35.02318052 90.47424457 -27.76652735 90.51740164 C-19.50540381 90.56677464 -11.24432006 90.62169254 -2.983235 90.67708123 C14.01113989 90.79090014 31.00555171 90.89773939 48 91 C45.67307207 94.53835992 43.45268511 97.80141734 40.4609375 100.8046875 C39.79707031 101.47113281 39.13320312 102.13757813 38.44921875 102.82421875 C37.76472656 103.50097656 37.08023438 104.17773438 36.375 104.875 C35.38306641 105.87853516 35.38306641 105.87853516 34.37109375 106.90234375 C32.28594815 108.97948495 30.1478026 110.98776939 28 113 C27.29724284 113.69721507 26.59448568 114.39443014 25.87043285 115.11277294 C18.92435316 121.43352262 13.49617014 122.14203797 4.30786133 121.98754883 C2.9581364 121.99349078 1.60842299 122.00288228 0.25874329 122.01542664 C-3.37809063 122.03891425 -7.01297393 122.01276592 -10.64963317 121.97580934 C-14.46867069 121.94419399 -18.28763126 121.95438421 -22.10676575 121.95866394 C-28.51477821 121.95949091 -34.92203306 121.92879259 -41.32983398 121.87817383 C-48.7260279 121.82004775 -56.12118918 121.80783551 -63.5175764 121.8210333 C-70.65323336 121.83305183 -77.78853455 121.81660725 -84.92412758 121.78589439 C-87.95231098 121.77311433 -90.9802982 121.7694795 -94.00850487 121.77317238 C-97.57534728 121.77594465 -101.14118858 121.75347849 -104.70778084 121.71188545 C-106.63260865 121.69513221 -108.55760022 121.70263701 -110.48248291 121.71096802 C-117.67318564 121.59633086 -121.69032899 120.98765243 -127 116 C-130.12032922 111.73555007 -131.12681531 107.9449848 -131.12025452 102.72259521 C-131.12162918 101.87568115 -131.12300385 101.02876709 -131.12442017 100.15618896 C-131.12082489 99.23549622 -131.11722961 98.31480347 -131.11352539 97.36621094 C-131.11367142 96.39026978 -131.11381744 95.41432861 -131.1139679 94.40881348 C-131.1132714 91.18397802 -131.10549126 87.95920037 -131.09765625 84.734375 C-131.09579114 82.49806754 -131.09436767 80.26175967 -131.09336853 78.02545166 C-131.08955071 72.14000317 -131.07972666 66.25457936 -131.06866455 60.36914062 C-131.05843466 54.36328465 -131.05386752 48.35742468 -131.04882812 42.3515625 C-131.03810376 30.56769749 -131.02103612 18.7838508 -131 7 C-130.3543169 6.99853344 -129.7086338 6.99706688 -129.04338455 6.99555588 C-113.33616478 6.95851242 -97.62920405 6.89953074 -81.92216873 6.81609726 C-74.32636407 6.77627912 -66.73066342 6.74390082 -59.13476562 6.72900391 C-52.51456008 6.71600166 -45.89458314 6.68907389 -39.27450633 6.64538693 C-35.76880551 6.62273955 -32.26338698 6.60709125 -28.75760651 6.60811615 C-24.84500401 6.60899917 -20.93297947 6.57879372 -17.02050781 6.54589844 C-15.85669586 6.5509288 -14.69288391 6.55595917 -13.49380493 6.56114197 C-11.89528183 6.54027275 -11.89528183 6.54027275 -10.26446533 6.51898193 C-8.8762451 6.51345118 -8.8762451 6.51345118 -7.45998001 6.50780869 C-4.24944354 5.84506415 -3.06190298 4.48903119 -1 2 C-0.67 1.34 -0.34 0.68 0 0 Z " fill="#F7F5F6" transform="translate(212,302)"/>
<path d="M0 0 C11.85707707 -0.09280769 23.71406727 -0.16381984 35.57143402 -0.20724869 C41.0777014 -0.22809567 46.5837197 -0.25636082 52.08984375 -0.30175781 C57.40666645 -0.34531818 62.72325001 -0.36915883 68.04023743 -0.37950897 C70.06557477 -0.38688202 72.09089949 -0.40127989 74.11613464 -0.42292023 C76.95986902 -0.45208949 79.80262372 -0.45595034 82.64648438 -0.45410156 C83.47799011 -0.46848267 84.30949585 -0.48286377 85.16619873 -0.49768066 C90.91684973 -0.45740442 95.31887928 0.56236584 100 4 C105.24205215 9.84237077 105.70994534 15.52050068 105.60127258 23.09838867 C105.60554471 24.19553255 105.60981683 25.29267643 105.61421841 26.42306709 C105.62243465 30.08845356 105.59498386 33.75268823 105.56762695 37.41796875 C105.5662162 40.04965691 105.56700899 42.68134704 105.56983948 45.31303406 C105.57245606 50.97319393 105.55682325 56.6330647 105.52865028 62.29315186 C105.48794421 70.47654718 105.47498584 78.6598033 105.46871033 86.8432889 C105.45777825 100.12167931 105.42453367 113.39991578 105.37719727 126.67822266 C105.33127347 139.57372266 105.29589539 152.46918078 105.2746582 165.36474609 C105.27334459 166.16017213 105.27203097 166.95559816 105.27067754 167.77512801 C105.26415216 171.76570969 105.25783367 175.75629168 105.25161803 179.74687386 C105.19981888 212.83136593 105.11040333 245.91565138 105 279 C89.16 279 73.32 279 57 279 C57.67772032 273.57823741 58.44252011 268.95848547 59.75 263.75 C61.33045743 257.21242065 62.35714163 250.66174109 63.19921875 243.99609375 C63.30197113 243.19565643 63.40472351 242.39521912 63.5105896 241.57052612 C64.03087547 237.49279511 64.52507458 233.41403389 64.98535156 229.32910156 C65.17564746 227.79612633 65.36669726 226.26324444 65.55859375 224.73046875 C65.62946701 224.02587021 65.70034027 223.32127167 65.77336121 222.59532166 C66.25757585 218.90422594 66.62168675 217.31773369 69.52174377 214.88206482 C73.05164633 210.77699777 72.69157518 207.55181005 72.61523438 202.30029297 C72.62355789 200.8433905 72.62355789 200.8433905 72.63204956 199.35705566 C72.64384585 196.15159541 72.61957343 192.94754853 72.59375 189.7421875 C72.59203912 187.51449651 72.59210435 185.2868035 72.59387207 183.05911255 C72.59221893 178.39354153 72.57351857 173.72845108 72.54199219 169.06298828 C72.50226891 163.0759771 72.49795233 157.0895941 72.50545502 151.10247612 C72.5085206 146.50430523 72.49641959 141.90627619 72.47932434 137.3081398 C72.47228302 135.10008763 72.46917117 132.89201938 72.47001648 130.68395615 C72.46822368 127.60264615 72.44688732 124.52209685 72.41992188 121.44091797 C72.42285248 120.52448517 72.42578308 119.60805237 72.42880249 118.66384888 C72.4174527 117.82553528 72.40610291 116.98722168 72.39440918 116.12350464 C72.39068047 115.39532972 72.38695175 114.66715481 72.38311005 113.91691399 C71.88484419 111.42381103 70.99785212 110.53260775 69 109 C66.0850745 108.4161804 66.0850745 108.4161804 63 109 C61.29428173 110.28299678 59.62150772 111.61209933 58 113 C57.7071814 111.94594971 57.7071814 111.94594971 57.40844727 110.87060547 C51.25871371 88.9355454 43.75440114 68.10583005 33 48 C32.48252197 47.02305176 32.48252197 47.02305176 31.95458984 46.02636719 C24.17368744 31.4322832 15.12274913 18.01344963 4.21484375 5.57421875 C2 3 2 3 0 0 Z " fill="#FDFEFE" transform="translate(254,15)"/>
<path d="M0 0 C39.93 0 79.86 0 121 0 C121.12375 16.83 121.2475 33.66 121.375 51 C121.45693604 58.95673828 121.45693604 58.95673828 121.54052734 67.07421875 C121.56762695 73.57617188 121.56762695 73.57617188 121.57266235 76.62475586 C121.58184647 78.74364796 121.60288852 80.86250963 121.63345337 82.98120117 C121.67755124 86.20025686 121.68343064 89.41740505 121.68115234 92.63671875 C121.70274099 93.57287521 121.72432964 94.50903168 121.74657249 95.47355652 C121.69130052 101.33087869 120.53265043 104.91888099 116.66581345 109.38519573 C111.0188064 114.85928475 104.99565013 114.41516965 97.57861328 114.34057617 C96.43656937 114.34101425 95.29452545 114.34145233 94.11787415 114.34190369 C90.35184496 114.33981759 86.58626371 114.31649407 82.8203125 114.29296875 C80.20572147 114.28737218 77.59112729 114.28310237 74.97653198 114.28010559 C68.80365184 114.27079661 62.63093188 114.24619856 56.45812213 114.21605712 C49.42790966 114.18247721 42.39768938 114.16601811 35.36741662 114.15097082 C20.91152861 114.11964785 6.45576655 114.06690983 -8 114 C-2.53615341 108.52308566 -2.53615341 108.52308566 0.015625 106.203125 C0.80296021 105.48370728 0.80296021 105.48370728 1.60620117 104.74975586 C2.41988159 104.00737671 2.41988159 104.00737671 3.25 103.25 C12.88098214 94.79269518 12.88098214 94.79269518 21 85 C20.30277958 84.99853344 19.60555916 84.99706688 18.88721085 84.99555588 C1.92823087 84.95851646 -15.03053031 84.89954005 -31.98934555 84.81609726 C-40.19049155 84.77627493 -48.39154116 84.74389874 -56.59277344 84.72900391 C-63.74034737 84.71600386 -70.88770947 84.68908163 -78.03516412 84.64538693 C-81.82031677 84.62273471 -85.60520781 84.60709155 -89.39043427 84.60811615 C-92.95285681 84.60886057 -96.51470023 84.59099879 -100.07697296 84.55883217 C-102.00846845 84.54624421 -103.94006098 84.55341421 -105.87158203 84.56114197 C-107.02140564 84.54722916 -108.17122925 84.53331635 -109.355896 84.51898193 C-110.35511959 84.51529476 -111.35434319 84.51160759 -112.38384628 84.50780869 C-115.73296264 83.85772824 -116.89946585 82.63681627 -119 80 C-120.0625 77.0625 -120.0625 77.0625 -120 74 C-117.84614331 71.38044456 -116.04053406 69.52026703 -113 68 C-111.06850798 67.92406308 -109.13427047 67.91495315 -107.20140076 67.93598938 C-105.96636307 67.9464328 -104.73132538 67.95687622 -103.4588623 67.96763611 C-102.45514587 67.97961438 -102.45514587 67.97961438 -101.43115234 67.99183464 C-98.53655685 68.02628773 -95.64189846 68.04961084 -92.74720204 68.07382143 C-91.18773373 68.08700903 -89.62827039 68.10079559 -88.06881225 68.11513484 C-78.06026825 68.20573085 -68.0514765 68.22372893 -58.04258811 68.24606192 C-48.29489717 68.26838706 -38.54858964 68.31313075 -28.80151367 68.4284668 C-21.06146149 68.51991897 -13.3229344 68.56176222 -5.58233315 68.54560155 C-1.48664015 68.53887815 2.60553538 68.55684979 6.70056343 68.63485146 C22.5287215 69.69758872 22.5287215 69.69758872 37.20923996 65.66427231 C40.95750409 62.04241543 42.40815643 57.926714 44 53 C45.24053609 50.59882251 46.60380565 48.31680779 48 46 C46.08537964 45.99383667 46.08537964 45.99383667 44.13208008 45.98754883 C39.38867006 45.96574921 34.64608855 45.91145054 29.90307617 45.84741211 C27.85172476 45.82423941 25.8002545 45.80983811 23.7487793 45.80444336 C20.7966105 45.79514857 17.84630914 45.75414636 14.89453125 45.70703125 C13.52238213 45.71293022 13.52238213 45.71293022 12.12251282 45.71894836 C7.63187232 45.61643984 5.60228659 45.45406669 1.9206543 42.6784668 C0 40 0 40 -0.625 36.4375 C0 33 0 33 1.79760742 30.82324219 C6.67941405 28.0438466 11.33556143 28.39673455 16.86328125 28.390625 C18.01040085 28.37408875 19.15752045 28.35755249 20.33940125 28.34051514 C23.99715509 28.29199609 27.65449303 28.27065449 31.3125 28.25 C33.79494284 28.22184375 36.27736628 28.19191682 38.75976562 28.16015625 C44.83976815 28.08623588 50.91965352 28.03461615 57 28 C58.48039707 24.22964855 59.95910644 20.45863745 61.4375 16.6875 C61.85837891 15.61564453 62.27925781 14.54378906 62.71289062 13.43945312 C63.11572266 12.41142578 63.51855469 11.38339844 63.93359375 10.32421875 C64.30540771 9.37635498 64.67722168 8.42849121 65.06030273 7.4519043 C65.75059563 5.65075814 66.39003018 3.82990945 67 2 C44.89 1.67 22.78 1.34 0 1 C0 0.67 0 0.34 0 0 Z " fill="#E0DCE0" transform="translate(238,309)"/>
<path d="M0 0 C2.1502533 1.43800354 2.1502533 1.43800354 4 4 C4.60626321 7.18012522 4.55653464 10.32498982 4.53344727 13.55444336 C4.54637062 15.00630791 4.54637062 15.00630791 4.55955505 16.48750305 C4.58226654 19.68855495 4.5754662 22.88873504 4.56640625 26.08984375 C4.57163973 28.31417604 4.57791519 30.53850609 4.58518982 32.76283264 C4.59560379 37.42589761 4.59101837 42.0886576 4.57641602 46.75170898 C4.55923185 52.72864529 4.5827145 58.70461997 4.61790562 64.68144894 C4.6398627 69.27541988 4.63844208 73.86916018 4.6301403 78.46316719 C4.62931977 80.66679501 4.63620259 82.87043959 4.65091133 85.07401848 C4.66832425 88.15533468 4.65384057 91.23491585 4.63110352 94.31616211 C4.64864182 95.68238205 4.64864182 95.68238205 4.66653442 97.07620239 C4.59918186 101.56057489 4.45407336 103.41654109 1.61680603 107.06227112 C-1 109 -1 109 -3.5 109.6875 C-6.47611199 108.8690692 -8.11393523 107.57548845 -9.99609375 105.1328125 C-12.06469774 100.73803515 -11.91483011 95.78499921 -12 91 C-12.67482422 91.56267578 -12.67482422 91.56267578 -13.36328125 92.13671875 C-25.5869632 101.86177233 -37.79483745 103.83479324 -53 103 C-56.53580004 102.37059057 -59.69032634 101.37903069 -63 100 C-63.6703125 99.74476563 -64.340625 99.48953125 -65.03125 99.2265625 C-76.62679437 94.21102942 -86.13156888 83.15192786 -90.9375 71.6875 C-94.61278312 60.46693366 -95.2201268 46.37566747 -90.3203125 35.4453125 C-89.88460937 34.63835937 -89.44890625 33.83140625 -89 33 C-88.25363281 31.60394531 -88.25363281 31.60394531 -87.4921875 30.1796875 C-80.22424808 17.77348393 -69.512831 10.504277 -56 6 C-38.94719912 4.4729412 -25.89612809 6.55097345 -12 17 C-11.98582031 16.19175781 -11.97164063 15.38351563 -11.95703125 14.55078125 C-11.56845447 5.84456092 -11.56845447 5.84456092 -8.8125 1.75 C-5.46096346 -0.33540051 -3.87316455 -0.74166981 0 0 Z " fill="#000303" transform="translate(323,123)"/>
<path d="M0 0 C6.2403979 4.77862982 8.23847489 11.16836341 10.80635071 18.35853577 C11.30681891 19.70992685 11.80922237 21.06060256 12.31340027 22.41061401 C13.67095007 26.06093124 15.00307534 29.7200502 16.3304863 33.38141632 C17.72672053 37.22029964 19.14461055 41.05115576 20.56147766 44.88246155 C22.33350244 49.67679274 24.10398517 54.47164933 25.86517334 59.26997375 C29.80652977 69.9986259 33.83919007 80.68900513 37.94142342 91.35713768 C38.86471024 93.75947369 39.78567504 96.16268568 40.70574951 98.56625366 C41.00471162 99.34720618 41.30367373 100.1281587 41.61169529 100.93277645 C42.20791448 102.49041592 42.80407781 104.04807678 43.40018368 105.60575962 C44.85846104 109.41370272 46.32197947 113.21947594 47.79649353 117.02116394 C49.18208918 120.59474505 50.55243336 124.17381625 51.91176224 127.75746727 C52.41256003 129.06939096 52.91895459 130.37919434 53.43140793 131.68660927 C54.13193164 133.4756793 54.8108404 135.27316749 55.48872375 137.07093811 C55.87441025 138.07305328 56.26009674 139.07516846 56.6574707 140.10765076 C57.62597685 144.30306534 57.41719214 148.26551546 55.22431946 152.04212952 C52.12642588 153.79760254 49.82087412 153.59186526 46.34931946 153.10462952 C43.1300843 149.7443336 41.4174779 146.35264512 39.77119446 142.03431702 C39.33291321 140.89091858 38.89463196 139.74752014 38.44306946 138.56947327 C37.99963196 137.38482483 37.55619446 136.20017639 37.09931946 134.97962952 C36.41096008 133.1910553 36.41096008 133.1910553 35.70869446 131.36634827 C32.34931946 122.51799447 32.34931946 122.51799447 32.34931946 119.10462952 C7.92931946 119.43462952 -16.49068054 119.76462952 -41.65068054 120.10462952 C-45.61068054 130.33462952 -49.57068054 140.56462952 -53.65068054 151.10462952 C-57.38323502 153.59299917 -59.23508989 153.64689504 -63.65068054 153.10462952 C-66.15068054 151.04212952 -66.15068054 151.04212952 -67.65068054 148.10462952 C-67.29808358 141.90928173 -65.13238951 136.50995935 -62.91630554 130.76087952 C-62.53076508 129.7435524 -62.14522461 128.72622528 -61.7480011 127.67807007 C-60.47246079 124.31758676 -59.18664906 120.96113455 -57.90068054 117.60462952 C-57.00309952 115.24638116 -56.10613708 112.88789728 -55.20976257 110.52919006 C-53.08631625 104.94654032 -50.95629423 99.36644446 -48.82284355 93.78761387 C-46.67777353 88.17766997 -44.53895367 82.5653606 -42.40104675 76.9526825 C-33.36421673 53.22834208 -33.36421673 53.22834208 -29.31169128 42.66874695 C-27.17267531 37.09502952 -25.05084763 31.51555314 -22.95243835 25.92640686 C-22.5059494 24.74535873 -22.05946045 23.56431061 -21.59944153 22.34747314 C-20.74534777 20.08810884 -19.8969221 17.82659067 -19.05519104 15.56259155 C-14.3071061 3.05267493 -14.3071061 3.05267493 -9.77568054 -0.27037048 C-6.21088688 -1.31883921 -3.40917904 -1.84922413 0 0 Z " fill="#000304" transform="translate(173.6506805419922,77.89537048339844)"/>
<path d="M0 0 C7.26 0 14.52 0 22 0 C22.09049203 12.88293307 22.16382644 25.76565386 22.20724869 38.64883327 C22.22809277 44.63148782 22.25635278 50.61391299 22.30175781 56.59643555 C22.34532827 62.37361457 22.36916101 68.15057343 22.37950897 73.92790413 C22.38688019 76.12825039 22.40127442 78.32858507 22.42292023 80.5288372 C22.45210253 83.61901441 22.45594974 86.7082904 22.45410156 89.79858398 C22.46848267 90.70130035 22.48286377 91.60401672 22.49768066 92.53408813 C22.45078563 99.81557278 20.81963491 106.18036509 15.5625 111.4375 C9.58948983 115.07957937 4.7656305 115.28774211 -2.08982849 115.26069641 C-3.11483886 115.26452196 -4.13984923 115.26834751 -5.19592053 115.27228898 C-8.63514156 115.28261877 -12.07419564 115.27862682 -15.51342773 115.2746582 C-17.97730667 115.27900467 -20.44118425 115.28418759 -22.90505981 115.29014587 C-28.90556407 115.30216076 -34.90600254 115.30468647 -40.90651279 115.30234561 C-45.78382653 115.30056246 -50.66112668 115.30231203 -55.5384388 115.30657005 C-56.57974762 115.30746284 -56.57974762 115.30746284 -57.64209299 115.30837366 C-59.05237794 115.30958541 -60.46266288 115.31079954 -61.87294782 115.31201603 C-75.09787963 115.32289186 -88.32278594 115.32072883 -101.54771919 115.31463119 C-113.64548433 115.30946154 -125.74316896 115.32071864 -137.84091818 115.33972941 C-150.2644694 115.35910243 -162.68798253 115.36736478 -175.11154896 115.36360615 C-182.08581604 115.36169335 -189.06001458 115.36418939 -196.03426933 115.37832069 C-202.59157432 115.39147277 -209.1487446 115.38898176 -215.7060585 115.37590981 C-218.11431622 115.37353833 -220.5225852 115.37629903 -222.93083 115.38453293 C-226.21513811 115.39495347 -229.49889969 115.38693705 -232.78318787 115.3742218 C-233.73892824 115.38159609 -234.69466862 115.38897037 -235.67937082 115.39656812 C-241.73471217 115.34715879 -246.16105474 114.55990363 -250.828125 110.3515625 C-255.68265115 104.45678074 -257.09067038 100.76138457 -257 93 C-255.81355204 92.99853344 -254.62710407 92.99706688 -253.40470314 92.99555588 C-225.21786106 92.95982591 -197.03111407 92.90354439 -168.84436659 92.82207905 C-165.37231903 92.81206203 -161.90027101 92.80221782 -158.42822266 92.79248047 C-157.39142337 92.78956841 -157.39142337 92.78956841 -156.33367865 92.78659752 C-145.15334831 92.75560709 -133.97303848 92.73860514 -122.7926733 92.72680578 C-111.31389626 92.71437886 -99.83524237 92.6865468 -88.35653055 92.64538693 C-81.91190197 92.62276368 -75.46742648 92.60708986 -69.02275467 92.60811615 C-62.95376496 92.60886223 -56.88511381 92.59093165 -50.8162117 92.55883217 C-48.59187362 92.5503309 -46.36749758 92.54858476 -44.14315033 92.55419731 C-41.09842787 92.56085507 -38.054777 92.54287328 -35.01016235 92.51898193 C-33.69980497 92.53062256 -33.69980497 92.53062256 -32.36297572 92.54249835 C-23.25221784 92.4165456 -15.43442891 89.31443554 -8.7578125 83.0703125 C-3.41956338 76.78304131 -0.89990726 69.54997523 -0.79467773 61.41723633 C-0.78477814 60.75355545 -0.77487854 60.08987457 -0.76467896 59.40608215 C-0.7331191 57.21476801 -0.70832845 55.02343219 -0.68359375 52.83203125 C-0.66301945 51.31173645 -0.64202285 49.79144731 -0.62062073 48.27116394 C-0.56544916 44.27141913 -0.51601825 40.27162311 -0.46777344 36.27178955 C-0.4175225 32.18961026 -0.36185519 28.10750526 -0.30664062 24.02539062 C-0.19911916 16.01698821 -0.09816145 8.00852262 0 0 Z " fill="#D0C9CF" transform="translate(374,345)"/>
<path d="M0 0 C6.6 0 13.2 0 20 0 C20.11306437 13.03058131 20.20475339 26.06083559 20.25906086 39.09179688 C20.28512875 45.14292662 20.32047654 51.19370269 20.37719727 57.24462891 C20.43161564 63.08665431 20.46144166 68.92834001 20.47438622 74.77059937 C20.48360833 76.99691107 20.50161714 79.22320466 20.52865028 81.44937134 C20.56507012 84.57342367 20.56993979 87.69608125 20.56762695 90.8203125 C20.58560333 91.73597488 20.60357971 92.65163727 20.62210083 93.595047 C20.57307948 99.73456738 19.40922184 104.53050698 15 109 C9.05052199 113.89989628 4.04435286 114.72312249 -3.51306152 114.63491821 C-4.54739114 114.64271817 -5.58172076 114.65051812 -6.6473937 114.65855443 C-10.10058186 114.67843967 -13.55266375 114.66272249 -17.00585938 114.64697266 C-19.48664491 114.65375026 -21.96742542 114.66265419 -24.44819641 114.67352295 C-30.47916946 114.69394106 -36.50971109 114.69097273 -42.54066718 114.67645974 C-47.44365656 114.66515125 -52.3465588 114.66364353 -57.2495575 114.66907883 C-57.94833019 114.66984499 -58.64710288 114.67061116 -59.3670505 114.67140054 C-60.7867534 114.67299922 -62.20645628 114.67462029 -63.62615913 114.6762635 C-76.92752659 114.69050898 -90.22872154 114.67414721 -103.53006071 114.64726166 C-114.9343521 114.62492391 -126.33838898 114.62880437 -137.74267578 114.65185547 C-150.99759881 114.67863478 -164.25237077 114.6891358 -177.50731707 114.67379415 C-178.92169219 114.67220147 -180.33606734 114.67062961 -181.7504425 114.66907883 C-182.4462768 114.66830745 -183.1421111 114.66753607 -183.85903129 114.66674132 C-188.75409558 114.66243069 -193.64906376 114.66969707 -198.54411316 114.68147659 C-205.13685765 114.69699329 -211.72919659 114.68588936 -218.32192039 114.65700531 C-220.74061981 114.65039733 -223.1593597 114.65228716 -225.57804298 114.66331863 C-228.88155276 114.67699594 -232.1835264 114.65982948 -235.48693848 114.63491821 C-236.44258871 114.64607182 -237.39823894 114.65722543 -238.38284826 114.66871703 C-244.69029697 114.57654878 -249.20857346 113.24017943 -254 109 C-257.08541059 104.7804305 -258.08170139 101.5698127 -258.03710938 96.34667969 C-258.03175171 95.53350281 -258.02639404 94.72032593 -258.02087402 93.88250732 C-258.0139856 93.26127991 -258.00709717 92.64005249 -258 92 C-256.83085682 91.99853344 -255.66171364 91.99706688 -254.45714188 91.99555588 C-226.66904418 91.95981061 -198.88104657 91.90350711 -171.09304406 91.82207905 C-167.66863787 91.81206226 -164.24423121 91.80221802 -160.81982422 91.79248047 C-159.79726963 91.78956841 -159.79726963 91.78956841 -158.75405738 91.78659752 C-147.73350813 91.75562381 -136.71297967 91.73860983 -125.69239512 91.72680578 C-114.37407006 91.71437016 -103.0558727 91.6865194 -91.73760867 91.64538693 C-85.38457774 91.62278321 -79.03170172 91.60708869 -72.67862701 91.60811615 C-66.69334862 91.60886338 -60.70841254 91.59088649 -54.72322273 91.55883217 C-52.53197606 91.5503454 -50.34069094 91.54857487 -48.14943504 91.55419731 C-28.14778813 91.67795881 -28.14778813 91.67795881 -10.6796875 82.6875 C-1.25268468 73.21665065 -0.5464967 60.92473162 -0.48828125 48.2421875 C-0.47139935 46.84398865 -0.4532445 45.44580466 -0.43388367 44.04763794 C-0.38675765 40.40145513 -0.35670833 36.75533253 -0.33044434 33.10894775 C-0.30044789 29.37459422 -0.25398417 25.64044754 -0.20898438 21.90625 C-0.12337778 14.60425262 -0.05737101 7.30228382 0 0 Z " fill="#C8BFC7" transform="translate(411,383)"/>
<path d="M0 0 C11.24479167 0 11.24479167 0 17 5 C20.47162181 9.4507972 22.12569219 12.90410551 22.12304783 18.52336407 C22.12503888 19.45592044 22.12702993 20.3884768 22.12908131 21.34929246 C22.12471205 22.88867304 22.12471205 22.88867304 22.12025452 24.45915222 C22.12110894 25.54794042 22.12196337 26.63672863 22.12284368 27.75851041 C22.1244974 31.42520505 22.11897884 35.09185446 22.11352539 38.75854492 C22.11324347 41.37964375 22.11340135 44.00074265 22.1139679 46.62184143 C22.11449271 52.27433431 22.11135033 57.92681567 22.10573006 63.57930565 C22.09760933 71.75189622 22.09499925 79.92448121 22.09374207 88.09707538 C22.09155245 101.35597985 22.08489481 114.61487817 22.07543945 127.8737793 C22.066263 140.75496388 22.05918331 153.63614679 22.05493164 166.51733398 C22.05453756 167.70796296 22.05453756 167.70796296 22.05413551 168.92264505 C22.05283049 172.90459609 22.05156678 176.88654715 22.05032361 180.86849821 C22.03995381 213.9123368 22.02206308 246.95616714 22 280 C14.74 280 7.48 280 0 280 C0 187.6 0 95.2 0 0 Z " fill="#6BD09D" transform="translate(374,51)"/>
<path d="M0 0 C10.33177261 0 10.33177261 0 15 4 C20.77920142 10.340898 20.69658365 16.92472858 20.59594727 25.14550781 C20.60203506 27.09809006 20.60203506 27.09809006 20.60824585 29.09011841 C20.61699743 31.90691289 20.61035998 34.7230889 20.59158516 37.53983307 C20.56237713 41.99438679 20.57031582 46.44841328 20.58348083 50.90301514 C20.60409331 59.54881238 20.58856451 68.19435117 20.56800842 76.84013367 C20.5428202 87.85966578 20.52999144 98.87905595 20.55796474 109.89859271 C20.56791733 114.32670651 20.55779517 118.75418432 20.53205693 123.18222857 C20.5228214 125.27112575 20.52261795 127.35978899 20.52645874 129.44869995 C20.53099425 131.99494229 20.5211592 134.54126606 20.49440002 137.08737183 C20.50108704 138.20880585 20.50777405 139.33023987 20.5146637 140.48565674 C20.51045331 141.94678328 20.51045331 141.94678328 20.50615788 143.43742752 C21.1455828 146.75543671 22.38854725 147.92037684 25 150 C25.99 150.33 26.98 150.66 28 151 C28 157.27 28 163.54 28 170 C26.02 170.99 24.04 171.98 22 173 C20.84914538 175.30170924 20.86338154 176.62761772 20.84178162 179.18875122 C20.82709839 180.50548325 20.82709839 180.50548325 20.81211853 181.84881592 C20.80636307 182.81410217 20.8006076 183.77938843 20.79467773 184.77392578 C20.77982834 186.29592087 20.77982834 186.29592087 20.76467896 187.84866333 C20.73300331 191.21418903 20.70828255 194.57972887 20.68359375 197.9453125 C20.66302946 200.27416356 20.64203313 202.60301084 20.62062073 204.93185425 C20.56534584 211.07046455 20.51596047 217.20910883 20.46777344 223.34777832 C20.41759792 229.60818517 20.36189127 235.86854249 20.30664062 242.12890625 C20.19899279 254.41923015 20.09807348 266.70959597 20 279 C13.4 279 6.8 279 0 279 C0 186.93 0 94.86 0 0 Z " fill="#FCC042" transform="translate(411,89)"/>
<path d="M0 0 C7.36258461 5.40349688 13.58813728 12.01704191 16 21 C17.09237361 31.59602398 16.48204248 40.80181906 10.08203125 49.65234375 C4.44571736 56.44584774 -2.18496095 61.34413631 -11 63 C-22.76683019 63.90400081 -31.05380778 62.54033022 -40.25 55 C-47.03077591 48.42243346 -51.146305 41.43988526 -51.55395508 31.90869141 C-51.60036932 20.52261568 -49.0432897 12.26067591 -41 4 C-29.65771472 -5.3784267 -12.94578132 -7.80856651 0 0 Z " fill="#00D2FD" transform="translate(296,148)"/>
<path d="M0 0 C0.82224389 -0.00709439 1.64448777 -0.01418877 2.49164814 -0.02149814 C5.24498485 -0.03909094 7.99691228 -0.0209674 10.75022888 -0.00291443 C12.72475325 -0.00805272 14.69927303 -0.01533332 16.67378235 -0.02459717 C22.03532648 -0.04312951 27.39637407 -0.03016133 32.75789762 -0.01050687 C38.36544972 0.00586339 43.97296997 -0.0029309 49.58053589 -0.00802612 C58.9967188 -0.01254851 68.41270315 0.00333279 77.82884216 0.03126526 C88.72109166 0.06332702 99.6129832 0.06329824 110.50525814 0.04605049 C120.9773868 0.03019772 131.44938399 0.03691033 141.92150688 0.0539875 C146.38118417 0.0608669 150.84075636 0.05981645 155.30043221 0.05244255 C160.54953172 0.04479247 165.79822283 0.05686419 171.04725266 0.08429146 C172.97579549 0.09118943 174.90437637 0.09125821 176.83291817 0.08407593 C179.46133647 0.07541368 182.08848499 0.09128173 184.71679688 0.11352539 C185.48381552 0.10528462 186.25083416 0.09704386 187.04109579 0.08855337 C190.49028052 0.14260044 192.44991941 0.37487937 195.26463223 2.44160557 C197.52663774 5.67374746 197.41249781 7.78539944 196.79490662 11.62818909 C193.94522354 14.70629239 192.25387636 15.56621011 188.0673666 16.13155365 C186.58766499 16.1534728 185.10753931 16.15347653 183.6277771 16.13612366 C182.4005366 16.1454836 182.4005366 16.1454836 181.14850336 16.15503263 C178.40916882 16.17097744 175.67072225 16.15835282 172.93138123 16.14576721 C170.96671021 16.15118763 169.00204327 16.15830984 167.03738403 16.16700745 C161.70276967 16.185252 156.36846452 16.17816883 151.03384471 16.1654911 C145.4543173 16.15537079 139.87481653 16.16475396 134.29528809 16.17103577 C124.92621603 16.17831438 115.55727008 16.16871818 106.18821716 16.14967346 C95.35050735 16.12789803 84.51309845 16.1349602 73.67539591 16.15697908 C64.37507102 16.17511937 55.07483681 16.1776983 45.77449995 16.16722441 C40.21767814 16.16098277 34.66099787 16.16017244 29.1041851 16.17337036 C23.88136615 16.18490847 18.658936 16.17694035 13.43615913 16.15379333 C11.51728588 16.14849562 9.59838001 16.15003811 7.67951965 16.15884399 C5.06425264 16.16974106 2.45023916 16.15610732 -0.16494751 16.13612366 C-0.9280752 16.14504654 -1.6912029 16.15396943 -2.47745568 16.16316271 C-5.93484152 16.11175732 -7.84997926 15.89759681 -10.64119625 13.78003693 C-12.71678085 10.92413155 -13.27735866 9.16918742 -13.20509338 5.62818909 C-9.39493054 0.55302285 -6.03884999 -0.09345622 0 0 Z " fill="#010001" transform="translate(131.20509338378906,377.37181091308594)"/>
<path d="M0 0 C2.91634653 2.47978065 3.95532838 4.95468972 5.26489258 8.51855469 C5.89618828 10.21742828 5.89618828 10.21742828 6.54023743 11.95062256 C7.21061287 13.79264252 7.21061287 13.79264252 7.89453125 15.671875 C8.368335 16.95473585 8.84293268 18.23730373 9.31828308 19.51959229 C10.5709211 22.90438733 11.81394271 26.29263152 13.05462646 29.68182373 C15.02339377 35.05443225 17.00730201 40.42148176 18.9894371 45.78916931 C19.7023172 47.72159648 20.41315529 49.65476613 21.12380981 51.5880127 C23.95263608 59.25946162 26.88282222 66.86652424 30.08081055 74.39160156 C31 77 31 77 31 81 C10.87 81 -9.26 81 -30 81 C-29.32141041 77.60705207 -28.71068681 74.94169351 -27.51635742 71.79345703 C-27.21441467 70.9919371 -26.91247192 70.19041718 -26.60137939 69.36460876 C-26.27272888 68.504366 -25.94407837 67.64412323 -25.60546875 66.7578125 C-25.26159119 65.84878677 -24.91771362 64.93976105 -24.56341553 64.00318909 C-23.44202366 61.0422916 -22.31491161 58.08361003 -21.1875 55.125 C-20.41652506 53.09359047 -19.64577423 51.06209588 -18.87524414 49.03051758 C-12.65874153 32.65792339 -6.36637383 16.31488403 0 0 Z " fill="#00D1FB" transform="translate(168,101)"/>
<path d="M0 0 C1.15947647 -0.01292336 1.15947647 -0.01292336 2.34237671 -0.02610779 C4.88875133 -0.04874714 7.43402367 -0.04203358 9.98046875 -0.03295898 C11.75496751 -0.03819521 13.52946349 -0.04447168 15.30395508 -0.05174255 C19.01950191 -0.06214275 22.73466566 -0.05759044 26.45019531 -0.04296875 C31.20866348 -0.02577437 35.96592489 -0.04928563 40.72425842 -0.08445835 C44.38749167 -0.10643074 48.05043604 -0.10499143 51.7137146 -0.09669304 C53.46798019 -0.09587356 55.22226699 -0.10273634 56.97647095 -0.11746407 C59.43037886 -0.13490958 61.88211645 -0.1203706 64.3359375 -0.09765625 C65.05816498 -0.10934845 65.78039246 -0.12104065 66.52450562 -0.13308716 C70.39635578 -0.06026357 72.0531594 0.44219976 75.12231445 2.88148499 C77.16796875 5.53344727 77.16796875 5.53344727 77.73046875 8.59594727 C77.02069907 12.30252224 76.17870644 13.27792248 73.16796875 15.53344727 C70.36072237 15.92300229 67.9472451 16.07097815 65.14233398 16.03515625 C64.3370224 16.04055923 63.53171082 16.04596222 62.70199585 16.05152893 C60.04314293 16.0640248 57.38537091 16.04752151 54.7265625 16.02954102 C52.87858524 16.02969597 51.03060764 16.03118434 49.18263245 16.03395081 C45.31146869 16.03533513 41.44067529 16.02277003 37.56958008 16 C32.60375801 15.97159537 27.63855045 15.9743576 22.67268276 15.98709011 C18.85771928 15.99403916 15.04289825 15.98626721 11.22795296 15.97383308 C9.39669401 15.96931245 7.56541981 15.96898711 5.73415947 15.97289848 C3.17718933 15.97580365 0.62107151 15.95933833 -1.93579102 15.9375 C-2.69483231 15.94200165 -3.4538736 15.9465033 -4.23591614 15.95114136 C-7.16285131 15.90953168 -9.30237077 15.87872186 -11.79429626 14.25428772 C-13.2649191 11.81560414 -13.29645541 9.36527487 -13.42578125 6.56860352 C-11.60467528 0.32652317 -5.55172047 -0.05016405 0 0 Z " fill="#080808" transform="translate(131.83203125,337.466552734375)"/>
<path d="M0 0 C0.80355927 -0.00686325 1.60711853 -0.0137265 2.43502808 -0.02079773 C5.09431573 -0.03911612 7.75301623 -0.03522106 10.41235352 -0.02954102 C12.25936577 -0.03410054 14.10637633 -0.03940542 15.9533844 -0.04542542 C19.82625211 -0.05436651 23.69891373 -0.05192223 27.57177734 -0.04199219 C32.53648724 -0.03050357 37.50048578 -0.05070714 42.4651022 -0.07990932 C46.28010075 -0.09825047 50.09492822 -0.097983 53.90995979 -0.0922718 C55.74040792 -0.09211832 57.57086745 -0.09818495 59.40127373 -0.11056328 C61.96067869 -0.12543167 64.51876159 -0.11482749 67.078125 -0.09765625 C67.83514206 -0.10732422 68.59215912 -0.11699219 69.37211609 -0.12695312 C72.83703703 -0.07824311 74.76193339 0.14891547 77.57411194 2.24790955 C79.66390882 5.19362112 79.69307553 6.86815813 79.10375977 10.40405273 C77.57411194 12.5592041 77.57411194 12.5592041 75.10375977 14.40405273 C72.2973262 14.79872357 69.88307374 14.95163211 67.078125 14.92163086 C66.27281342 14.92864014 65.46750183 14.93564941 64.63778687 14.94287109 C61.97895717 14.96046007 59.32119381 14.94882669 56.66235352 14.93530273 C54.81437475 14.93799714 52.96639737 14.94187912 51.11842346 14.94689941 C47.24726857 14.95279545 43.37648304 14.9442272 39.50537109 14.92553711 C34.53944015 14.90273146 29.57437313 14.91588005 24.60847378 14.93982697 C20.79349739 14.95426854 16.97872649 14.9496868 13.16374397 14.9393158 C11.33247844 14.93664479 9.50119434 14.93993138 7.66995049 14.94923401 C5.11279612 14.95937456 2.55704929 14.94393546 0 14.92163086 C-1.13856194 14.93377625 -1.13856194 14.93377625 -2.30012512 14.94616699 C-5.56710289 14.89327729 -7.40828659 14.85228179 -9.86631775 12.59436035 C-11.37485089 9.38620471 -11.27710084 6.89527496 -10.89624023 3.40405273 C-8.40493491 -0.68293998 -4.28571349 -0.02541729 0 0 Z " fill="#000000" transform="translate(248.896240234375,338.595947265625)"/>
</svg>
